<svg id="Layer_1" data-name="Layer 1" xmlns="http://www.w3.org/2000/svg" width="238.9" height="118.64" viewBox="0 0 238.9 118.64"><defs><style>.cls-1{fill:#d40500;}.cls-2{fill:#1c00ff;}.cls-3{fill:#e90000;}.cls-4{fill:#0d00f4;}.cls-5{fill:#df0000;}.cls-10,.cls-14,.cls-15,.cls-6,.cls-7,.cls-9{fill:none;}.cls-15,.cls-6{stroke:#df0000;}.cls-6,.cls-7,.cls-9{stroke-linecap:round;}.cls-6,.cls-7{stroke-width:1.5px;}.cls-7{stroke:#e90000;}.cls-16,.cls-21,.cls-8{fill:#1300e9;}.cls-9{stroke:#0d00e9;stroke-width:2px;}.cls-10{stroke:#0000e9;}.cls-11{fill:#0064df;}.cls-12{fill:#231f20;}.cls-13{fill:#e90d00;}.cls-14{stroke:#0700ff;opacity:0.75;}.cls-14,.cls-15{stroke-width:5px;}.cls-14,.cls-16,.cls-17,.cls-18,.cls-19,.cls-20,.cls-21,.cls-22{isolation:isolate;}.cls-16{opacity:0.4;}.cls-17{fill:#1200df;opacity:0.6;}.cls-18{fill:#ff4a4a;opacity:0.8;}.cls-19{fill:#ff2a2a;opacity:0.9;}.cls-20{fill:#fff;opacity:0.3;}.cls-21{opacity:0.5;}.cls-22{fill:#0600e9;opacity:0.7;}.cls-23{fill:#d40000;}.cls-24{fill:#0d00e9;}</style></defs><title>mejs-controls_edit</title><path class="cls-1" d="M16.5,8.5a.52.52,0,0,1,.2.8c-.1.1-.1.2-.2.2l-11.4,7c-.5.3-.8.1-.8-.5V2c0-.5.4-.8.8-.5Z" transform="translate(0 -0.36)"/><path class="cls-2" d="M24,1h2.2a.94.94,0,0,1,1,1V16a.94.94,0,0,1-1,1H24a.94.94,0,0,1-1-1V2A1,1,0,0,1,24,1Zm9.8,0H36a.94.94,0,0,1,1,1V16a.94.94,0,0,1-1,1H33.8a.94.94,0,0,1-1-1V2A1,1,0,0,1,33.8,1Z" transform="translate(0 -0.36)"/><path class="cls-3" d="M81,1.4a.94.94,0,0,1,1-1h5.4c.6,0,.7.3.3.7l-6,6c-.4.4-.7.3-.7-.3Zm0,15.8a.94.94,0,0,0,1,1h5.4c.6,0,.7-.3.3-.7l-6-6c-.4-.4-.7-.3-.7.3ZM98.8,1.4a.94.94,0,0,0-1-1H92.4c-.6,0-.7.3-.3.7l6,6c.4.4.7.3.7-.3Zm0,15.8a.94.94,0,0,1-1,1H92.4c-.6,0-.7-.3-.3-.7l6-6c.4-.4.7-.3.7.3Z" transform="translate(0 -0.36)"/><path class="cls-4" d="M112.7,5a.94.94,0,0,0,1,1h4.1c.6,0,.7-.3.3-.7L113.4.6c-.4-.4-.7-.3-.7.3Zm-7.1,1a.94.94,0,0,0,1-1V.9c0-.6-.3-.7-.7-.3l-4.7,4.7c-.4.4-.3.7.3.7Zm1,7.1a.94.94,0,0,0-1-1h-4.1c-.6,0-.7.3-.3.7l4.7,4.7c.4.4.7.3.7-.3Zm7.1-1a.94.94,0,0,0-1,1v4.1c0,.5.3.7.7.3l4.7-4.7c.4-.4.3-.7-.3-.7Z" transform="translate(0 -0.36)"/><path class="cls-5" d="M67,5.8a3,3,0,0,1-1.8.6H62a.94.94,0,0,0-1,1v5.7a.94.94,0,0,0,1,1h4.2c.3.2.5.4.8.6l3.5,2.6a.47.47,0,0,0,.8-.4V3.5a.47.47,0,0,0-.8-.4Z" transform="translate(0 -0.36)"/><path class="cls-6" d="M73.9,2.5s3.9-.8,3.9,7.7S73.9,18,73.9,18" transform="translate(0 -0.36)"/><path class="cls-7" d="M72.6,6.4s2.6-.4,2.6,3.8-2.6,3.9-2.6,3.9" transform="translate(0 -0.36)"/><path class="cls-8" d="M47,5.8a3,3,0,0,1-1.8.6H42a.94.94,0,0,0-1,1v5.7a.94.94,0,0,0,1,1h4.2c.3.2.5.4.8.6l3.5,2.6a.47.47,0,0,0,.8-.4V3.5a.47.47,0,0,0-.8-.4Z" transform="translate(0 -0.36)"/><path class="cls-9" d="M52.8,7l5.4,5.4m-5.4,0L58.2,7" transform="translate(0 -0.36)"/><path class="cls-10" d="M128.7,8.6c-6.2-4.2-6.5,7.8,0,3.9m6.5-3.9c-6.2-4.2-6.5,7.8,0,3.9" transform="translate(0 -0.36)"/><path class="cls-5" d="M122.2,3.4h15.7V16.5H122.2ZM120.8,2V17.7h18.3V2Z" transform="translate(0 -0.36)"/><path class="cls-11" d="M143.2,3h14a2,2,0,0,1,2,2V15a2,2,0,0,1-2,2h-14a2,2,0,0,1-2-2V5A2,2,0,0,1,143.2,3Z" transform="translate(0 -0.36)"/><path class="cls-12" d="M146.4,13.8a2.81,2.81,0,0,1-2.1-1,3.91,3.91,0,0,1,.1-4.8c.5-.6,2-1.7,4.6.2l-.6.8c-1.4-1-2.6-1.1-3.3-.3a3,3,0,0,0-.1,3.5c.7.9,1.9.8,3.4-.1l.5.9a5.28,5.28,0,0,1-2.5.8Zm7.5,0a2.81,2.81,0,0,1-2.1-1,3.91,3.91,0,0,1,.1-4.8c.5-.6,2-1.7,4.6.2L156,9c-1.4-1-2.6-1.1-3.3-.3a3,3,0,0,0-.1,3.5c.7.9,1.9.8,3.4-.1l.5.9a6.07,6.07,0,0,1-2.6.8Z" transform="translate(0 -0.36)"/><path class="cls-13" d="M60.3,77a1,1,0,0,1,.6,1.4.9.9,0,0,1-.6.6L30,96.5c-1,.6-1.7.1-1.7-1v-35c0-1.1.8-1.5,1.7-1Z" transform="translate(0 -0.36)"/><path class="cls-14" d="M2.5,79A37.5,37.5,0,1,1,40,116.5,37.51,37.51,0,0,1,2.5,79Z" transform="translate(0 -0.36)"/><path class="cls-8" d="M140.3,77a1,1,0,0,1,.6,1.4.9.9,0,0,1-.6.6L110,96.5c-1,.6-1.7.1-1.7-1v-35c0-1.1.8-1.5,1.7-1Z" transform="translate(0 -0.36)"/><path class="cls-15" d="M82.5,79A37.5,37.5,0,1,1,120,116.5,37.51,37.51,0,0,1,82.5,79Z" transform="translate(0 -0.36)"/><circle class="cls-5" cx="201.9" cy="46.74" r="8.1"/><circle class="cls-16" cx="233.9" cy="78.64" r="5"/><circle class="cls-17" cx="201.9" cy="110.54" r="6"/><circle class="cls-18" cx="170.1" cy="78.64" r="7"/><circle class="cls-19" cx="178.2" cy="55.94" r="7.5"/><circle class="cls-20" cx="226.3" cy="55.74" r="4.5"/><circle class="cls-21" cx="225.8" cy="102.44" r="5.5"/><circle class="cls-22" cx="178.2" cy="102.44" r="6.5"/><path class="cls-23" d="M178,9.4a.81.81,0,0,1-.9.7c-.1,0-.2,0-.2-.1L172,8.2c-.5-.2-.6-.6-.1-.8l6.2-3.6c.5-.3.8-.1.7.5L178,9.4Z" transform="translate(0 -0.36)"/><path class="cls-23" d="M169.4,15.9a5.92,5.92,0,0,1-2.9-.7,5.77,5.77,0,0,1-3.2-5.2,6.21,6.21,0,0,1,6.3-6,6.15,6.15,0,0,1,5.6,4.1l.1-.1,2.1,1.1a8.1,8.1,0,0,0-9.1-6.9,8.24,8.24,0,0,0-7,7.9,8.06,8.06,0,0,0,4.3,7,10.21,10.21,0,0,0,3.8,1,8.24,8.24,0,0,0,6.6-3.3l-1.8-.9a7,7,0,0,1-4.8,2Z" transform="translate(0 -0.36)"/><path class="cls-24" d="M183.4,3.2a1.54,1.54,0,0,1,1.5,1.5,1.5,1.5,0,0,1-3,0A1.47,1.47,0,0,1,183.4,3.2Zm5.1,0H197a1.47,1.47,0,0,1,1.5,1.5A1.54,1.54,0,0,1,197,6.2h-8.5A1.47,1.47,0,0,1,187,4.7,1.37,1.37,0,0,1,188.5,3.2Zm-5.1,5a1.5,1.5,0,1,1-1.5,1.5A1.47,1.47,0,0,1,183.4,8.2Zm5.1,0H197a1.47,1.47,0,0,1,1.5,1.5,1.54,1.54,0,0,1-1.5,1.5h-8.5A1.47,1.47,0,0,1,187,9.7,1.37,1.37,0,0,1,188.5,8.2Zm-5.1,5a1.5,1.5,0,1,1-1.5,1.5A1.47,1.47,0,0,1,183.4,13.2Zm5.1,0H197a1.47,1.47,0,0,1,1.5,1.5,1.54,1.54,0,0,1-1.5,1.5h-8.5a1.47,1.47,0,0,1-1.5-1.5A1.37,1.37,0,0,1,188.5,13.2Z" transform="translate(0 -0.36)"/></svg>